<?xml version="1.0" encoding="utf-8"?>
<svg xmlns="http://www.w3.org/2000/svg" xmlns:xlink="http://www.w3.org/1999/xlink" style="margin: auto; background: rgb(0, 11, 58); display: block; z-index: 1; position: relative; shape-rendering: auto;" width="1436" height="711" preserveAspectRatio="xMidYMid" viewBox="0 0 1436 711">
<g transform="translate(718,355.5) scale(1,1) translate(-718,-355.5)"><path id="path0" d="M 1288.7512263645006 150.55796905937504
c 0 22.99054025903945 -5.6253449569990135 6.603665819085799 -12.229010776084813 6.603665819085799
S 1264.293204812331 173.5485093184145 1264.293204812331 150.55796905937504
s 5.6253449569990135 -6.603665819085799 12.229010776084813 -6.603665819085799
S 1288.7512263645006 127.56742880033559 1288.7512263645006 150.55796905937504
z" fill="none" stroke="none"></path>
<circle cx="0" cy="0" r="5.832766961655823" fill="#9df871">
  <animateMotion begin="-6.20538151944948s" dur="10s" repeatCount="indefinite">
    <mpath xlink:href="#path0"></mpath>
  </animateMotion>
</circle><path id="path1" d="M 489.6169841047682 143.67145695695444
c 0 36.41923886010352 -8.91109035938703 10.46084520449782 -19.37193556388485 10.46084520449782
S 450.8731129769985 180.09069581705796 450.8731129769985 143.67145695695444
s 8.91109035938703 -10.46084520449782 19.37193556388485 -10.46084520449782
S 489.6169841047682 107.25221809685092 489.6169841047682 143.67145695695444
z" fill="none" stroke="none"></path>
<circle cx="0" cy="0" r="5.75994929148824" fill="#ff708e">
  <animateMotion begin="-3.9374995501603793s" dur="10s" repeatCount="indefinite">
    <mpath xlink:href="#path1"></mpath>
  </animateMotion>
</circle><path id="path2" d="M 256.15958496936236 18.261106830465277
c 0 21.10052711183195 -5.162894931618456 6.06078970233471 -11.223684633953166 6.06078970233471
S 233.71221570145605 39.36163394229723 233.71221570145605 18.261106830465277
s 5.162894931618456 -6.06078970233471 11.223684633953166 -6.06078970233471
S 256.15958496936236 -2.8394202813666745 256.15958496936236 18.261106830465277
z" fill="none" stroke="none"></path>
<circle cx="0" cy="0" r="4.253008443216092" fill="#e0ff77">
  <animateMotion begin="-5.948068753172295s" dur="10s" repeatCount="indefinite">
    <mpath xlink:href="#path2"></mpath>
  </animateMotion>
</circle><path id="path3" d="M 1061.4749809070827 609.0074043878346
c 0 29.271367688672466 -7.162143157866667 8.407733272278263 -15.569876430144928 8.407733272278263
S 1030.335228046793 638.2787720765072 1030.335228046793 609.0074043878346
s 7.162143157866667 -8.407733272278263 15.569876430144928 -8.407733272278263
S 1061.4749809070827 579.7360366991621 1061.4749809070827 609.0074043878346
z" fill="none" stroke="none"></path>
<circle cx="0" cy="0" r="5.864470953546543" fill="#ff708e">
  <animateMotion begin="-5.583372137327154s" dur="10s" repeatCount="indefinite">
    <mpath xlink:href="#path3"></mpath>
  </animateMotion>
</circle><path id="path4" d="M 775.6753654502828 143.5038917268403
c 0 30.710217019529416 -7.514202036693367 8.821019782205259 -16.335221818898624 8.821019782205259
S 743.0049218124856 174.2141087463697 743.0049218124856 143.5038917268403
s 7.514202036693367 -8.821019782205259 16.335221818898624 -8.821019782205259
S 775.6753654502828 112.79367470731088 775.6753654502828 143.5038917268403
z" fill="none" stroke="none"></path>
<circle cx="0" cy="0" r="4.747852501816776" fill="#ff708e">
  <animateMotion begin="-3.791947163906586s" dur="10s" repeatCount="indefinite">
    <mpath xlink:href="#path4"></mpath>
  </animateMotion>
</circle><path id="path5" d="M 134.44730603683715 625.4164564407888
c 0 24.696546313233675 -6.042771970259303 7.093688834652227 -13.136460804911529 7.093688834652227
S 108.17438442701408 650.1130027540224 108.17438442701408 625.4164564407888
s 6.042771970259303 -7.093688834652227 13.136460804911529 -7.093688834652227
S 134.44730603683715 600.7199101275552 134.44730603683715 625.4164564407888
z" fill="none" stroke="none"></path>
<circle cx="0" cy="0" r="5.968630855295398" fill="#de9dd6">
  <animateMotion begin="-9.3774211705664s" dur="10s" repeatCount="indefinite">
    <mpath xlink:href="#path5"></mpath>
  </animateMotion>
</circle><path id="path6" d="M 1215.7989748932991 685.1232459330121
c 0 34.19462646070893 -8.366770304216013 9.821860791905756 -18.18863109612177 9.821860791905756
S 1179.4217127010556 719.317872393721 1179.4217127010556 685.1232459330121
s 8.366770304216013 -9.821860791905756 18.18863109612177 -9.821860791905756
S 1215.7989748932991 650.9286194723031 1215.7989748932991 685.1232459330121
z" fill="none" stroke="none"></path>
<circle cx="0" cy="0" r="6.511682193128573" fill="#de9dd6">
  <animateMotion begin="-7.315527898792671s" dur="10s" repeatCount="indefinite">
    <mpath xlink:href="#path6"></mpath>
  </animateMotion>
</circle><path id="path7" d="M 583.245670654271 434.825806848387
c 0 27.594608753191544 -6.7518723545043136 7.926111024852891 -14.677983379357205 7.926111024852891
S 553.8897038955565 462.42041560157855 553.8897038955565 434.825806848387
s 6.7518723545043136 -7.926111024852891 14.677983379357205 -7.926111024852891
S 583.245670654271 407.23119809519545 583.245670654271 434.825806848387
z" fill="none" stroke="none"></path>
<circle cx="0" cy="0" r="6.902849024807733" fill="#51cacc">
  <animateMotion begin="-5.769019627864114s" dur="10s" repeatCount="indefinite">
    <mpath xlink:href="#path7"></mpath>
  </animateMotion>
</circle><path id="path8" d="M 418.21526682261106 302.91090263072397
c 0 33.86432526353319 -8.285951926183651 9.726987043780811 -18.012938969964463 9.726987043780811
S 382.1893888826821 336.77522789425717 382.1893888826821 302.91090263072397
s 8.285951926183651 -9.726987043780811 18.012938969964463 -9.726987043780811
S 418.21526682261106 269.04657736719076 418.21526682261106 302.91090263072397
z" fill="none" stroke="none"></path>
<circle cx="0" cy="0" r="4.139940966125729" fill="#9df871">
  <animateMotion begin="-9.116313172043835s" dur="10s" repeatCount="indefinite">
    <mpath xlink:href="#path8"></mpath>
  </animateMotion>
</circle><path id="path9" d="M 1017.5034934956441 183.74488507785514
c 0 22.016747946693055 -5.387076625254682 6.323959516603324 -11.711036141858006 6.323959516603324
S 994.081421211928 205.7616330245482 994.081421211928 183.74488507785514
s 5.387076625254682 -6.323959516603324 11.711036141858006 -6.323959516603324
S 1017.5034934956441 161.7281371311621 1017.5034934956441 183.74488507785514
z" fill="none" stroke="none"></path>
<circle cx="0" cy="0" r="4.5854848196243" fill="#9df871">
  <animateMotion begin="-3.1638892089130755s" dur="10s" repeatCount="indefinite">
    <mpath xlink:href="#path9"></mpath>
  </animateMotion>
</circle><path id="path10" d="M 564.7789366086714 275.9305013227778
c 0 22.938810746401405 -5.61268773582162 6.588807342051468 -12.201495077873087 6.588807342051468
S 540.3759464529252 298.8693120691792 540.3759464529252 275.9305013227778
s 5.61268773582162 -6.588807342051468 12.201495077873087 -6.588807342051468
S 564.7789366086714 252.99169057637639 564.7789366086714 275.9305013227778
z" fill="none" stroke="none"></path>
<circle cx="0" cy="0" r="5.059234244104857" fill="#9df871">
  <animateMotion begin="-5.460280829197741s" dur="10s" repeatCount="indefinite">
    <mpath xlink:href="#path10"></mpath>
  </animateMotion>
</circle><path id="path11" d="M 1160.6069421063532 624.2449121275941
c 0 36.965486908792776 -9.044746796832275 10.617746239759628 -19.6624930365919 10.617746239759628
S 1121.2819560331693 661.2103990363869 1121.2819560331693 624.2449121275941
s 9.044746796832275 -10.617746239759628 19.6624930365919 -10.617746239759628
S 1160.6069421063532 587.2794252188014 1160.6069421063532 624.2449121275941
z" fill="none" stroke="none"></path>
<circle cx="0" cy="0" r="7.387760995069191" fill="#ff708e">
  <animateMotion begin="-6.540443345739524s" dur="10s" repeatCount="indefinite">
    <mpath xlink:href="#path11"></mpath>
  </animateMotion>
</circle><path id="path12" d="M 1002.3337973811908 200.15951643579874
c 0 36.148190092891994 -8.844769916345912 10.382990771362595 -19.227760687708507 10.382990771362595
S 963.8782760057738 236.30770652869074 963.8782760057738 200.15951643579874
s 8.844769916345912 -10.382990771362595 19.227760687708507 -10.382990771362595
S 1002.3337973811908 164.01132634290673 1002.3337973811908 200.15951643579874
z" fill="none" stroke="none"></path>
<circle cx="0" cy="0" r="4.850406263937045" fill="#ff708e">
  <animateMotion begin="-6.990600052145314s" dur="10s" repeatCount="indefinite">
    <mpath xlink:href="#path12"></mpath>
  </animateMotion>
</circle><path id="path13" d="M 1113.1804479733187 690.9935219669295
c 0 22.01516819638456 -5.386690090604732 6.323505758535991 -11.710195849140723 6.323505758535991
S 1089.7600562750372 713.0086901633141 1089.7600562750372 690.9935219669295
s 5.386690090604732 -6.323505758535991 11.710195849140723 -6.323505758535991
S 1113.1804479733187 668.9783537705449 1113.1804479733187 690.9935219669295
z" fill="none" stroke="none"></path>
<circle cx="0" cy="0" r="4.161910561571551" fill="#9df871">
  <animateMotion begin="-2.0773816659989186s" dur="10s" repeatCount="indefinite">
    <mpath xlink:href="#path13"></mpath>
  </animateMotion>
</circle><path id="path14" d="M 691.4699835977663 429.04179007770296
c 0 19.521241777357655 -4.77647405190666 5.607165191368689 -10.383639243275349 5.607165191368689
S 670.7027051112157 448.5630318550606 670.7027051112157 429.04179007770296
s 4.77647405190666 -5.607165191368689 10.383639243275349 -5.607165191368689
S 691.4699835977663 409.5205483003453 691.4699835977663 429.04179007770296
z" fill="none" stroke="none"></path>
<circle cx="0" cy="0" r="4.381213872436459" fill="#e0ff77">
  <animateMotion begin="-5.64642363758431s" dur="10s" repeatCount="indefinite">
    <mpath xlink:href="#path14"></mpath>
  </animateMotion>
</circle><path id="path15" d="M 157.5050210819142 437.54889049103275
c 0 30.290309484094102 -7.411458703554939 8.700408043303625 -16.111866746858567 8.700408043303625
S 125.28128758819707 467.83919997512686 125.28128758819707 437.54889049103275
s 7.411458703554939 -8.700408043303625 16.111866746858567 -8.700408043303625
S 157.5050210819142 407.25858100693864 157.5050210819142 437.54889049103275
z" fill="none" stroke="none"></path>
<circle cx="0" cy="0" r="4.905009875635073" fill="#51cacc">
  <animateMotion begin="-8.659551554083256s" dur="10s" repeatCount="indefinite">
    <mpath xlink:href="#path15"></mpath>
  </animateMotion>
</circle><path id="path16" d="M 334.36002576705386 69.03552898239745
c 0 33.48583999550839 -8.193343828688223 9.61827319019922 -17.811617018887443 9.61827319019922
S 298.736791729279 102.52136897790584 298.736791729279 69.03552898239745
s 8.193343828688223 -9.61827319019922 17.811617018887443 -9.61827319019922
S 334.36002576705386 35.54968898688906 334.36002576705386 69.03552898239745
z" fill="none" stroke="none"></path>
<circle cx="0" cy="0" r="7.577109494269641" fill="#e0ff77">
  <animateMotion begin="-8.7927851089448s" dur="10s" repeatCount="indefinite">
    <mpath xlink:href="#path16"></mpath>
  </animateMotion>
</circle><path id="path17" d="M 64.92094156189884 423.8607776986567
c 0 21.643358156004826 -5.295715293490542 6.216709257575854 -11.512424551066395 6.216709257575854
S 41.89609245976606 445.5041358546615 41.89609245976606 423.8607776986567
s 5.295715293490542 -6.216709257575854 11.512424551066395 -6.216709257575854
S 64.92094156189884 402.2174195426519 64.92094156189884 423.8607776986567
z" fill="none" stroke="none"></path>
<circle cx="0" cy="0" r="7.292625663088457" fill="#9df871">
  <animateMotion begin="-7.427755814459007s" dur="10s" repeatCount="indefinite">
    <mpath xlink:href="#path17"></mpath>
  </animateMotion>
</circle><path id="path18" d="M 20.16401627901972 383.4793205976742
c 0 22.75172739503908 -5.566912022190412 6.535070634745267 -12.101982656935679 6.535070634745267
S -4.039949034851638 406.2310479927133 -4.039949034851638 383.4793205976742
s 5.566912022190412 -6.535070634745267 12.101982656935679 -6.535070634745267
S 20.16401627901972 360.7275932026351 20.16401627901972 383.4793205976742
z" fill="none" stroke="none"></path>
<circle cx="0" cy="0" r="6.541427954519081" fill="#e0ff77">
  <animateMotion begin="-5.255084096036624s" dur="10s" repeatCount="indefinite">
    <mpath xlink:href="#path18"></mpath>
  </animateMotion>
</circle><path id="path19" d="M 1227.4674760675691 43.39506382133393
c 0 36.93524478951252 -9.037347129348806 10.609059673583383 -19.646406802932187 10.609059673583383
S 1188.1746624617047 80.33030861084644 1188.1746624617047 43.39506382133393
s 9.037347129348806 -10.609059673583383 19.646406802932187 -10.609059673583383
S 1227.4674760675691 6.459819031821411 1227.4674760675691 43.39506382133393
z" fill="none" stroke="none"></path>
<circle cx="0" cy="0" r="6.541933533290801" fill="#e0ff77">
  <animateMotion begin="-1.122379047458193s" dur="10s" repeatCount="indefinite">
    <mpath xlink:href="#path19"></mpath>
  </animateMotion>
</circle><path id="path20" d="M 536.7476497324172 65.62199664807844
c 0 25.23075269375312 -6.173482042088529 7.2471310928865345 -13.420613134975063 7.2471310928865345
S 509.90642346246716 90.85274934183155 509.90642346246716 65.62199664807844
s 6.173482042088529 -7.2471310928865345 13.420613134975063 -7.2471310928865345
S 536.7476497324172 40.39124395432532 536.7476497324172 65.62199664807844
z" fill="none" stroke="none"></path>
<circle cx="0" cy="0" r="6.390576845768408" fill="#9df871">
  <animateMotion begin="-4.6718075817127485s" dur="10s" repeatCount="indefinite">
    <mpath xlink:href="#path20"></mpath>
  </animateMotion>
</circle><path id="path21" d="M 520.6193590894607 312.7523173137893
c 0 35.74841208838451 -8.746951893966422 10.268160919004062 -19.015112812970486 10.268160919004062
S 482.58913346351966 348.5007294021738 482.58913346351966 312.7523173137893
s 8.746951893966422 -10.268160919004062 19.015112812970486 -10.268160919004062
S 520.6193590894607 277.0039052254048 520.6193590894607 312.7523173137893
z" fill="none" stroke="none"></path>
<circle cx="0" cy="0" r="4.4647918632214685" fill="#de9dd6">
  <animateMotion begin="-7.6015590683982115s" dur="10s" repeatCount="indefinite">
    <mpath xlink:href="#path21"></mpath>
  </animateMotion>
</circle><path id="path22" d="M 105.09027636761829 273.7031938425912
c 0 27.787252771471366 -6.7990086568493755 7.981444944997095 -14.780453601846471 7.981444944997095
S 75.52936916392534 301.49044661406253 75.52936916392534 273.7031938425912
s 6.7990086568493755 -7.981444944997095 14.780453601846471 -7.981444944997095
S 105.09027636761829 245.91594107111982 105.09027636761829 273.7031938425912
z" fill="none" stroke="none"></path>
<circle cx="0" cy="0" r="7.567922401852993" fill="#e0ff77">
  <animateMotion begin="-1.9111244376928593s" dur="10s" repeatCount="indefinite">
    <mpath xlink:href="#path22"></mpath>
  </animateMotion>
</circle><path id="path23" d="M 553.0040128831203 702.875618400276
c 0 33.532909386995684 -8.20486080745639 9.631793121796633 -17.836653929253025 9.631793121796633
S 517.3307050246143 736.4085277872717 517.3307050246143 702.875618400276
s 8.20486080745639 -9.631793121796633 17.836653929253025 -9.631793121796633
S 553.0040128831203 669.3427090132803 553.0040128831203 702.875618400276
z" fill="none" stroke="none"></path>
<circle cx="0" cy="0" r="6.525154919472975" fill="#de9dd6">
  <animateMotion begin="-6.884949282754402s" dur="10s" repeatCount="indefinite">
    <mpath xlink:href="#path23"></mpath>
  </animateMotion>
</circle><path id="path24" d="M 771.766925330188 685.2723124718258
c 0 26.804914388307388 -6.5586492652241475 7.6992839200457395 -14.257933185269886 7.6992839200457395
S 743.2510589596483 712.0772268601331 743.2510589596483 685.2723124718258
s 6.5586492652241475 -7.6992839200457395 14.257933185269886 -7.6992839200457395
S 771.766925330188 658.4673980835184 771.766925330188 685.2723124718258
z" fill="none" stroke="none"></path>
<circle cx="0" cy="0" r="6.1565398919207714" fill="#9df871">
  <animateMotion begin="-7.464109365145804s" dur="10s" repeatCount="indefinite">
    <mpath xlink:href="#path24"></mpath>
  </animateMotion>
</circle><path id="path25" d="M 200.9822562484915 298.4504614331022
c 0 32.30801801213775 -7.905153343395407 9.279962620507652 -17.18511596390306 9.279962620507652
S 166.61202432068538 330.7584794452399 166.61202432068538 298.4504614331022
s 7.905153343395407 -9.279962620507652 17.18511596390306 -9.279962620507652
S 200.9822562484915 266.14244342096447 200.9822562484915 298.4504614331022
z" fill="none" stroke="none"></path>
<circle cx="0" cy="0" r="6.351894775964078" fill="#de9dd6">
  <animateMotion begin="-1.3379530177735965s" dur="10s" repeatCount="indefinite">
    <mpath xlink:href="#path25"></mpath>
  </animateMotion>
</circle><path id="path26" d="M 709.0177475997237 140.18275779952063
c 0 20.277321828511976 -4.961472362295482 5.824337120955567 -10.78580948325105 5.824337120955567
S 687.4461286332217 160.46007962803262 687.4461286332217 140.18275779952063
s 4.961472362295482 -5.824337120955567 10.78580948325105 -5.824337120955567
S 709.0177475997237 119.90543597100866 709.0177475997237 140.18275779952063
z" fill="none" stroke="none"></path>
<circle cx="0" cy="0" r="7.893959036702464" fill="#9df871">
  <animateMotion begin="-5.532058185335906s" dur="10s" repeatCount="indefinite">
    <mpath xlink:href="#path26"></mpath>
  </animateMotion>
</circle><path id="path27" d="M 1332.0270052253438 552.1719748547775
c 0 22.700906479585996 -5.554477117345509 6.520473137753425 -12.074950255098933 6.520473137753425
S 1307.877104715146 574.8728813343636 1307.877104715146 552.1719748547775
s 5.554477117345509 -6.520473137753425 12.074950255098933 -6.520473137753425
S 1332.0270052253438 529.4710683751915 1332.0270052253438 552.1719748547775
z" fill="none" stroke="none"></path>
<circle cx="0" cy="0" r="5.974171262852568" fill="#de9dd6">
  <animateMotion begin="-6.10351886810796s" dur="10s" repeatCount="indefinite">
    <mpath xlink:href="#path27"></mpath>
  </animateMotion>
</circle><path id="path28" d="M 1424.572677892631 106.35906658221677
c 0 37.49299085315071 -9.1738169108773 10.76926333016031 -19.94308024103761 10.76926333016031
S 1384.6865174105556 143.85205743536747 1384.6865174105556 106.35906658221677
s 9.1738169108773 -10.76926333016031 19.94308024103761 -10.76926333016031
S 1424.572677892631 68.86607572906607 1424.572677892631 106.35906658221677
z" fill="none" stroke="none"></path>
<circle cx="0" cy="0" r="7.88588668895616" fill="#ff708e">
  <animateMotion begin="-1.8624626853025483s" dur="10s" repeatCount="indefinite">
    <mpath xlink:href="#path28"></mpath>
  </animateMotion>
</circle><path id="path29" d="M 182.24722535566664 565.4896266513443
c 0 29.46090312131912 -7.208518848833401 8.462174300804428 -15.67069314963783 8.462174300804428
S 150.905839056391 594.9505297726635 150.905839056391 565.4896266513443
s 7.208518848833401 -8.462174300804428 15.67069314963783 -8.462174300804428
S 182.24722535566664 536.0287235300252 182.24722535566664 565.4896266513443
z" fill="none" stroke="none"></path>
<circle cx="0" cy="0" r="4.333474167015573" fill="#de9dd6">
  <animateMotion begin="-0.20121911870285114s" dur="10s" repeatCount="indefinite">
    <mpath xlink:href="#path29"></mpath>
  </animateMotion>
</circle></g>
</svg>